# xmcd
#
# Track frame offsets:
#	150
#	17205
#	39360
#	56952
#	72990
#	86075
#	126762
#	137690
#	153500
#	184882
#	197547
#	217947
#	228762
#
# Disc length: 3256 seconds
#
# Revision: 2
# Processed by: cddbd v1.5.2PL0 Copyright (c) Steve Scherf et al.
# Submitted via: audiograbber 1.83.01
#
DISCID=b30cb60d
DTITLE=Fleetwood Mac - Then Play On
DYEAR=1970
DGENRE=Oldies
TTITLE0=Coming Your Way
TTITLE1=Closing My Eyes
TTITLE2=Show-Biz Blues
TTITLE3=My Dream
TTITLE4=Underway
TTITLE5=Oh Well
TTITLE6=Although The Sun Is Shining
TTITLE7=Rattlesnake Shake
TTITLE8=Searching For Madge
TTITLE9=Fighting For Madge
TTITLE10=When You Say
TTITLE11=Like Crying
TTITLE12=Before The Beginning
EXTD=
EXTT0=
EXTT1=
EXTT2=
EXTT3=
EXTT4=
EXTT5=
EXTT6=
EXTT7=
EXTT8=
EXTT9=
EXTT10=
EXTT11=
EXTT12=
PLAYORDER=
